<?xml version="1.0" encoding="utf-8"?>
<!-- Generator: Adobe Illustrator 18.0.0, SVG Export Plug-In . SVG Version: 6.00 Build 0)  -->
<!DOCTYPE svg PUBLIC "-//W3C//DTD SVG 1.1//EN" "http://www.w3.org/Graphics/SVG/1.1/DTD/svg11.dtd">
<svg version="1.1" id="图层_1" xmlns="http://www.w3.org/2000/svg" xmlns:xlink="http://www.w3.org/1999/xlink" x="0px" y="0px"
	 viewBox="0 0 425.2 198.4" enable-background="new 0 0 425.2 198.4" xml:space="preserve">
<title>Group 8</title>
<desc>Created with Sketch.</desc>
<g id="Page-1">
	<g id="首页" transform="translate(-325.000000, -1251.000000)">
		<g id="Group" transform="translate(-65.000000, 0.000000)">
			<g id="菜单栏" transform="translate(65.000000, 1236.000000)">
				<g id="Group-8" transform="translate(325.000000, 15.000000)">
					<path id="联系客服" fill="#FFFFFF" d="M67.6,135.2h29.2v4.8h-4.2v38.8c1.8-0.3,4.2-0.6,6.3-1.2c0,1.5,0,3.3,0.3,4.8
						c-0.9,0-1.8,0.3-3.3,0.6c-1.5,0.3-2.7,0.3-3.6,0.6V198h-4.8v-13.2c-3.3,0.6-8.1,1.5-14.4,2.7c-2.4,0.6-4.2,0.9-5.4,1.2
						l-0.9-5.4c1.8-0.3,3.6-0.6,5.4-0.9V140h-4.5V135.2z M94.9,163.2h16.5v-4.2v-8.7H97v-5.1h18.6c2.7-4.2,5.7-9,8.7-14.7l4.8,2.4
						c-2.4,4.2-5.1,8.4-7.8,12.3h12v5.1h-16.5v8.4v4.2h18.9v4.8h-18.3c3.3,11.1,9.6,19.2,19.2,25c-1.5,1.5-2.7,3.3-3.9,4.8
						c-9.3-6.9-15.3-14.4-18-23.2c-2.1,9-7.8,16.8-17.4,24.1c-0.3-0.3-0.9-1.2-1.8-2.1c-0.9-1.2-1.8-2.1-2.4-2.7
						c10.5-6.3,16.5-15,17.7-26.2H94.9C94.9,167.4,94.9,163.2,94.9,163.2z M77.2,181.8c1.2-0.3,2.7-0.6,4.5-0.9
						c2.4-0.6,4.5-0.9,5.7-1.2v-9.9H77.2V181.8z M77.2,155v10.5h10.5V155H77.2z M77.2,140v10.2h10.5V140H77.2z M99.8,133.1l4.2-3
						c3,3.3,5.7,6.6,8.1,10.2l-4.5,3.3C105.2,140,102.8,136.7,99.8,133.1L99.8,133.1z M189,158.3c6.9,5.7,13.2,11.4,19.8,17.1
						l-4.8,3.6c-1.5-1.5-3.3-3.3-5.4-5.4c-7.8,0.3-14.1,0.6-19.2,0.6V189c0.3,5.7-2.7,8.7-8.7,8.7H162c0-0.9-0.3-2.4-0.9-4.5
						c-0.3-0.3-0.3-0.6-0.3-0.9h3c2.4,0.3,4.5,0.3,5.7,0.3c3.3,0.3,4.8-1.2,4.5-4.2v-13.8c-7.8,0.3-14.4,0.6-19.5,0.9
						c-2.1,0-4.8,0.3-7.8,0.6l-2.1-4.8c3-0.6,5.7-1.5,8.4-3.3c6.6-3,13.2-6.3,20.1-10.2c-2.4,0.3-6.6,0.3-12.3,0.6
						c-2.7,0.3-4.8,0.3-6,0.3c-2.4,0.3-4.2,0.6-5.7,0.9L147,155c2.4-0.9,4.5-1.8,6.3-3c3.3-1.8,8.4-5.1,15.3-9.6
						c1.8-1.2,3-2.1,4.2-2.7c-3,0.3-6.9,0.3-12.3,0.6c-6.6,0.3-11.4,0.6-14.4,0.9c0-1.2-0.3-3-1.2-5.1c24.1-1.2,43.9-2.4,59.5-3.9
						l1.5,4.8c-11.1,0.9-21.3,1.8-30.1,2.4l3.6,2.4c-8.4,5.1-15.6,9.3-21.6,12.3c2.7-0.3,7.5-0.3,14.1-0.6c4.2-0.3,6.9-0.3,9-0.3
						c5.7-3.3,10.2-6.3,14.1-9.3l4.8,3.9c-13.8,8.4-28,15.9-43,22.8c13.8-0.3,26.2-0.9,36.7-1.5c-0.9-0.9-2.7-2.4-4.8-4.2
						c-1.8-1.5-3-2.4-3.9-3.3L189,158.3z M186.3,181.2l3.6-3.9c3.6,2.4,9,6.3,16.2,11.4c1.5,0.9,2.4,1.5,3.3,2.1l-4.2,4.2
						c-0.9-0.6-1.8-1.5-3.3-2.7C197.8,189,192.4,185.4,186.3,181.2L186.3,181.2z M159.6,177.9l4.5,3.3c-6.3,5.4-12.6,10.2-18.9,14.1
						c-2.1-2.1-3.6-3.6-4.2-4.2C146.7,188.1,153,183.6,159.6,177.9L159.6,177.9z M239.3,143l4.8,2.4c-0.3,0.3-0.9,0.9-1.8,1.8
						c-0.6,0.9-1.2,1.5-1.5,2.1h31.6v4.8c-4.5,4.5-9.6,8.4-15.3,11.4c6.3,2.1,15.3,3.6,28,4.2c-1.5,2.7-2.1,4.5-2.7,5.4
						c-14.4-1.2-25-3.3-31.6-6.3c-7.8,3.3-18.6,6-33.1,7.8c-0.3-1.5-1.2-3-2.7-5.1c12.9-1.5,22.8-3.6,29.5-5.7
						c-3.9-2.4-7.5-5.1-11.1-8.7c-3,3-6.6,5.7-10.8,8.4c-1.2-1.2-2.4-2.4-3.9-3.9C227.8,155.9,234.4,149.9,239.3,143L239.3,143z
						 M227.5,176.1h45.7v22.2h-5.1V195h-35.2v3.3h-5.1v-22.2H227.5z M246.5,130.4l5.1-0.9c0.9,3.9,1.5,6.9,2.1,8.7h28.3v12.9h-5.1
						v-8.4h-52.6v8.4h-5.1v-12.9h29.5c-0.3-0.3-0.3-1.2-0.6-2.1C247.4,133.4,246.8,131.6,246.5,130.4L246.5,130.4z M232.9,180.6v9.9
						h35.2v-9.9H232.9z M265.4,153.8h-27.4c3.9,4.2,8.1,7.2,12.9,9.3C256.4,160.7,261.2,157.7,265.4,153.8L265.4,153.8z
						 M320.1,134.3H355l-0.6,10.5c0.3,6.6-3.6,9.6-11.1,9.3h-9c0-0.6-0.3-1.5-0.6-3c-0.3-1.2-0.3-2.1-0.6-2.7c3,0.3,6,0.3,9.3,0.3
						c4.5,0.3,6.9-1.2,6.6-4.2l0.3-5.1h-23.8v20.1H355v4.2c-2.1,9-5.7,16.2-10.5,21.6c3.6,3.3,8.4,6,15,8.4c-1.5,1.8-3,3.6-4.2,4.8
						c-5.7-3-10.5-6-14.4-9.6c-3.6,3-7.8,6-12.6,9c-0.9-1.5-1.8-3-3-4.5c5.7-2.4,9.6-5.1,12.3-8.1c-4.5-5.7-7.5-12.9-9-21h-3.3v34.6
						h-5.4v-64.6H320.1z M294.6,133.7h19.8v56.8c0.3,4.5-2.1,6.9-6.6,6.9h-6.3c-0.3-1.5-0.6-3.3-0.9-4.8h5.7
						c2.4,0.3,3.3-0.6,3.3-2.7v-15.6h-9.9c0.3,10.5-1.8,18.6-5.7,24.1c-1.2-1.2-2.4-2.4-4.2-3.9c3.6-4.2,5.4-11.4,4.8-21.3
						L294.6,133.7L294.6,133.7z M349.6,163.8h-16.2c1.5,6.6,4.2,12.3,7.8,17.4C345.4,176.1,348.1,170.4,349.6,163.8L349.6,163.8z
						 M299.4,156.2v13.5h9.9v-13.5H299.4z M299.4,138.5v13.2h9.9v-13.2H299.4z"/>
					<path id="Fill-3" fill="#FFFFFF" d="M275.6,34.2c0-15.6-12.6-28.3-28.3-28.3h-29.2c-4.5,0-8.7,1.2-12.3,3h2.4
						c15.9,0,29.5,11.1,33.1,26.2h13.2c1.5,0,2.7,1.2,2.7,2.7s-1.2,2.7-2.7,2.7h-12.3c0,0.6,0,1.5,0,2.1v6.6h12.3
						c1.5,0,2.7,1.2,2.7,2.7s-1.2,2.7-2.7,2.7h-12.3v4.8c0,7.2-2.4,13.8-6.3,19.5h1.2c0.9,0,1.8,0.6,2.4,1.5l5.7,9.6l5.7-10.2
						c0.3-0.6,1.2-1.2,2.1-1.5c13.2-2.4,22.8-14.1,22.8-27.7V34.2H275.6z M208,87.7c15.6,0,28.3-12.6,28.3-28.3V42.6
						c0-15.6-12.6-28.3-28.3-28.3h-29.2c-15.6,0-28.3,12.6-28.3,28.3v16.8c0,13.5,9.6,25.3,22.8,27.7c0.9,0.3,1.5,0.6,2.1,1.5
						l5.7,10.2l5.7-9.6c0.6-0.9,1.5-1.5,2.4-1.5H208L208,87.7z M281.3,34.2V51c0,15.9-11.1,29.5-26.2,33.1l-7.5,13.2
						c-0.6,0.9-1.5,1.5-2.4,1.5l0,0c-0.9,0-1.8-0.6-2.4-1.5L235.3,85h-4.5c-6,5.4-13.8,8.7-22.5,8.7h-16.8l-7.5,12.3
						c-0.9,0.6-1.8,1.2-3,1.2l0,0c-0.9,0-1.8-0.6-2.4-1.5L171,92.5c-15.3-3.6-26.2-17.1-26.2-33.1V42.6c0-18.6,15.3-34,34-34h16.8
						c6-5.4,13.8-8.7,22.5-8.7h29.2C266,0.2,281.3,15.5,281.3,34.2L281.3,34.2z M211.3,63.3H174c-1.5,0-2.7,1.2-2.7,2.7
						s1.2,2.7,2.7,2.7h37.3c1.5,0,2.7-1.2,2.7-2.7C214,64.8,212.8,63.3,211.3,63.3L211.3,63.3z M211.3,49.2H174
						c-1.5,0-2.7,1.2-2.7,2.7s1.2,2.7,2.7,2.7h37.3c1.5,0,2.7-1.2,2.7-2.7C214,50.4,212.8,49.2,211.3,49.2L211.3,49.2z M214,37.8
						c0,1.5-1.2,2.7-2.7,2.7H174c-1.5,0-2.7-1.2-2.7-2.7s1.2-2.7,2.7-2.7h37.3C212.8,35.1,214,36.3,214,37.8L214,37.8z"/>
				</g>
			</g>
		</g>
	</g>
</g>
</svg>
